<?xml version="1.0" encoding="utf-8"?>
<!-- Generator: Adobe Illustrator 19.0.0, SVG Export Plug-In . SVG Version: 6.00 Build 0)  -->
<svg version="1.1"
	 id="svg2759" xmlns:dc="http://purl.org/dc/elements/1.1/" xmlns:svg="http://www.w3.org/2000/svg" xmlns:rdf="http://www.w3.org/1999/02/22-rdf-syntax-ns#" xmlns:sodipodi="http://sodipodi.sourceforge.net/DTD/sodipodi-0.dtd" xmlns:inkscape="http://www.inkscape.org/namespaces/inkscape" xmlns:cc="http://web.resource.org/cc/" sodipodi:docname="by-nc-sa.svg" sodipodi:version="0.32" inkscape:output_extension="org.inkscape.output.svg.inkscape" inkscape:version="0.45+devel"
	 xmlns="http://www.w3.org/2000/svg" xmlns:xlink="http://www.w3.org/1999/xlink" x="0px" y="0px" viewBox="-326 282.3 101.3 25.7"
	 style="enable-background:new -326 282.3 101.3 25.7;" xml:space="preserve">
<style type="text/css">
	.st0{fill:#D1D1D1;}
</style>
<sodipodi:namedview  objecttolerance="10" inkscape:cx="60" inkscape:cy="31" borderopacity="1" guidetolerance="10" inkscape:zoom="1.8760684" gridtolerance="10000" pagecolor="#ffffff" bordercolor="#8b8b8b" width="120px" height="42px" id="base" inkscape:window-y="319" inkscape:window-x="170" inkscape:window-height="624" inkscape:window-width="1198" inkscape:showpageshadow="false" inkscape:pageshadow="2" inkscape:document-units="px" inkscape:current-layer="layer1" inkscape:pageopacity="0.0">
	</sodipodi:namedview>
<g>
	<path id="path5708_5_" class="st0" d="M-305,287.2c2.2,2.2,3.3,4.9,3.3,8c0,3.2-1.1,5.8-3.2,8c-2.3,2.2-5,3.4-8.1,3.4
		c-3.1,0-5.7-1.1-8-3.3c-2.2-2.2-3.3-4.9-3.3-8c0-3.1,1.1-5.8,3.3-8c2.2-2.2,4.8-3.3,8-3.3C-309.9,283.9-307.2,285-305,287.2z
		 M-319.5,288.7c-1.9,1.9-2.8,4.1-2.8,6.6c0,2.5,0.9,4.7,2.8,6.5c1.8,1.8,4,2.8,6.5,2.8s4.7-0.9,6.6-2.8c1.8-1.7,2.7-3.9,2.7-6.5
		c0-2.6-0.9-4.8-2.7-6.6c-1.8-1.8-4-2.7-6.6-2.7S-317.7,286.9-319.5,288.7z M-314.6,294.1c-0.3-0.6-0.7-0.9-1.3-0.9
		c-1,0-1.5,0.7-1.5,2c0,1.3,0.5,2,1.5,2c0.7,0,1.1-0.3,1.4-1l1.4,0.7c-0.7,1.2-1.7,1.8-3,1.8c-1,0-1.8-0.3-2.4-0.9
		c-0.6-0.6-0.9-1.5-0.9-2.6c0-1.1,0.3-1.9,0.9-2.6c0.6-0.6,1.4-1,2.4-1c1.4,0,2.4,0.6,3,1.6L-314.6,294.1z M-308.1,294.1
		c-0.3-0.6-0.7-0.9-1.2-0.9c-1,0-1.5,0.7-1.5,2c0,1.3,0.5,2,1.5,2c0.7,0,1.1-0.3,1.4-1l1.4,0.7c-0.7,1.2-1.6,1.8-3,1.8
		c-1,0-1.8-0.3-2.4-0.9c-0.6-0.6-0.9-1.5-0.9-2.6c0-1.1,0.3-1.9,0.9-2.6c0.6-0.6,1.4-1,2.4-1c1.4,0,2.4,0.6,3,1.6L-308.1,294.1z"/>
</g>
<g>
	<path id="path132" class="st0" d="M-284.9,292.1c0-0.4-0.3-0.7-0.7-0.7h-4.7c-0.4,0-0.7,0.3-0.7,0.7v4.7h1.3v5.6h3.6v-5.6h1.3
		V292.1L-284.9,292.1z"/>

		<circle id="circle134" sodipodi:ry="1.63232" sodipodi:rx="1.63232" sodipodi:cx="491.93359" sodipodi:cy="84.090332" class="st0" cx="-288" cy="289.1" r="1.6">
	</circle>
	<path id="path136" class="st0" d="M-288,283.4c-3.2,0-5.9,1.1-8.2,3.4c-2.3,2.3-3.4,5.1-3.4,8.2c0,3.2,1.1,5.9,3.4,8.2
		c2.3,2.3,5,3.4,8.2,3.4c3.2,0,6-1.1,8.3-3.4c2.2-2.2,3.3-4.9,3.3-8.1s-1.1-6-3.4-8.2C-282,284.5-284.8,283.4-288,283.4z
		 M-288,285.5c2.6,0,4.9,0.9,6.7,2.8c1.9,1.8,2.8,4.1,2.8,6.7c0,2.7-0.9,4.9-2.7,6.6c-1.9,1.9-4.2,2.8-6.8,2.8
		c-2.6,0-4.8-0.9-6.7-2.8c-1.9-1.9-2.8-4.1-2.8-6.7s0.9-4.8,2.8-6.7C-292.9,286.4-290.7,285.5-288,285.5z"/>
</g>
<g>
	<path id="path6338_1_" class="st0" d="M-238.1,283.4c-3.2,0-5.9,1.1-8.2,3.4c-2.3,2.3-3.4,5.1-3.4,8.2s1.1,5.9,3.4,8.2
		c2.3,2.3,5,3.4,8.2,3.4c3.2,0,6-1.2,8.3-3.4c2.2-2.2,3.3-4.9,3.3-8.1c0-3.2-1.1-6-3.4-8.2C-232.1,284.5-234.8,283.4-238.1,283.4z
		 M-238.1,285.5c2.6,0,4.9,0.9,6.7,2.8c1.9,1.8,2.8,4.1,2.8,6.7c0,2.7-0.9,4.9-2.7,6.6c-1.9,1.9-4.2,2.8-6.8,2.8
		c-2.6,0-4.8-0.9-6.7-2.8c-1.9-1.9-2.8-4.1-2.8-6.7c0-2.6,0.9-4.8,2.8-6.7C-242.9,286.4-240.7,285.5-238.1,285.5z"/>
	<path id="path6340_1_" class="st0" d="M-243.2,293.3c0.5-2.9,2.5-4.5,5.1-4.5c3.7,0,6,2.7,6,6.3c0,3.5-2.4,6.2-6,6.2
		c-2.5,0-4.7-1.5-5.1-4.5h2.9c0.1,1.6,1.1,2.1,2.5,2.1c1.6,0,2.7-1.5,2.7-3.9c0-2.5-0.9-3.8-2.7-3.8c-1.3,0-2.4,0.5-2.6,2.1l0.8,0
		l-2.3,2.3l-2.3-2.3L-243.2,293.3z"/>
</g>
<g>
	<path id="path6365_1_" class="st0" d="M-263.1,283.4c3.3,0,6,1.1,8.2,3.4c2.2,2.2,3.4,5,3.4,8.2s-1.1,6-3.3,8.1
		c-2.3,2.3-5.1,3.4-8.3,3.4c-3.2,0-5.9-1.1-8.2-3.4c-2.3-2.3-3.4-5-3.4-8.2c0-3.2,1.1-5.9,3.4-8.2
		C-269,284.5-266.3,283.4-263.1,283.4z M-272,291.9c-0.3,1-0.5,2-0.5,3.1c0,2.6,0.9,4.8,2.8,6.7c1.9,1.9,4.1,2.8,6.7,2.8
		c2.6,0,4.8-0.9,6.8-2.8c0.6-0.6,1.2-1.3,1.6-2l-4.4-1.9c-0.3,1.5-1.6,2.5-3.2,2.6v1.8h-1.3v-1.8c-1.3,0-2.6-0.5-3.5-1.4l1.6-1.6
		c0.8,0.7,1.5,1,2.6,1c0.7,0,1.4-0.3,1.4-1.2c0-0.3-0.1-0.5-0.3-0.7l-1.1-0.5l-1.4-0.6c-0.7-0.3-1.3-0.6-1.8-0.8L-272,291.9z
		 M-263,285.5c-2.6,0-4.9,0.9-6.7,2.8c-0.5,0.5-0.9,1-1.3,1.6l4.4,2c0.4-1.2,1.6-2,3-2.1v-1.8h1.3v1.8c0.9,0,1.9,0.3,2.9,1.1
		l-1.5,1.6c-0.6-0.4-1.3-0.7-2-0.7c-0.6,0-1.4,0.2-1.4,0.9c0,0.1,0,0.2,0.1,0.3l1.5,0.7l1,0.4c0.6,0.3,1.3,0.6,1.9,0.8l5.9,2.6
		c0.2-0.8,0.3-1.6,0.3-2.5c0-2.6-0.9-4.9-2.8-6.7C-258.2,286.4-260.4,285.5-263,285.5z"/>
</g>
</svg>
