<svg id="Layer_1" data-name="Layer 1" xmlns="http://www.w3.org/2000/svg" viewBox="0 0 50 50"><defs><style>.cls-1{fill:blue;}.cls-2{fill:#fff;}</style></defs><title>home_btn</title><circle class="cls-1" cx="25" cy="25" r="25"/><path class="cls-2" d="M15.51,16.78h5.68V29.09h2.91v2.12h-8.6V29.09h3V18.92h-3Z"/><path class="cls-2" d="M33.81,20.86a7.05,7.05,0,0,1,1.09.08,6.46,6.46,0,0,1,.81.17l-.39,2.6a9.44,9.44,0,0,0-2.09-.24,3.24,3.24,0,0,0-1.76.42,2.56,2.56,0,0,0-1,1.21v6.11H27.89V21h2.43l.12,1.66a4.67,4.67,0,0,1,1.48-1.36A3.75,3.75,0,0,1,33.81,20.86Z"/></svg>