<svg width="410" height="438" viewBox="0 0 410 438" version="1.1" xmlns="http://www.w3.org/2000/svg" xmlns:xlink="http://www.w3.org/1999/xlink">
<title>Group 5</title>
<desc>Created using Figma</desc>
<g id="Canvas" transform="translate(-16914 -5507)">
<g id="Group 5">
<g id="Ellipse (Stroke)">
<use xlink:href="#path0_fill" transform="matrix(-1 1.22465e-16 -1.22465e-16 -1 17324 5931)" fill="#FFFFFF"/>
</g>
<g id="Ellipse 2.4">
<use xlink:href="#path1_fill" transform="matrix(-1 1.22465e-16 -1.22465e-16 -1 17135 5945)" fill="#FFFFFF"/>
</g>
<g id="Ellipse (Stroke)">
<use xlink:href="#path0_fill" transform="matrix(1 -2.44929e-16 2.44929e-16 1 16914 5521)" fill="#FFFFFF"/>
</g>
<g id="Ellipse 2.6">
<use xlink:href="#path1_fill" transform="matrix(1 -2.44929e-16 2.44929e-16 1 17103 5507)" fill="#FFFFFF"/>
</g>
</g>
</g>
<defs>
<path id="path0_fill" fill-rule="evenodd" d="M 205 4C 204.832 4 204.665 4.00021 204.498 4.00061L 204.488 0.000626564C 204.658 0.000208974 204.829 0 205 0L 205 4ZM 174.632 6.2788C 168.327 7.23418 162.119 8.48242 156.021 10.0092L 155.05 6.12896C 161.27 4.57157 167.602 3.29838 174.033 2.32395L 174.632 6.2788ZM 145.441 12.9701C 142.889 13.7608 140.359 14.6009 137.851 15.4893L 136.515 11.719C 139.073 10.8127 141.654 9.95579 144.257 9.14931L 145.441 12.9701ZM 133.163 17.2169C 132.229 17.5744 131.298 17.9387 130.371 18.3097L 128.885 14.596C 129.831 14.2175 130.78 13.8459 131.733 13.4812L 133.163 17.2169ZM 128.521 19.0607C 128.214 19.1873 127.906 19.3147 127.6 19.4428L 126.058 15.7518C 126.371 15.6211 126.685 15.4911 126.998 15.362L 128.521 19.0607ZM 100.906 33.0192C 95.4842 36.3078 90.2304 39.8457 85.1603 43.6169L 82.773 40.4073C 87.9436 36.5614 93.3018 32.9533 98.8314 29.5992L 100.906 33.0192ZM 76.5231 50.4142C 74.474 52.1191 72.4593 53.864 70.4802 55.6477L 67.8022 52.6764C 69.8205 50.8574 71.875 49.078 73.9647 47.3393L 76.5231 50.4142ZM 66.8102 59.0385C 66.0846 59.7256 65.3642 60.4182 64.6489 61.116L 61.8556 58.2529C 62.585 57.5412 63.3197 56.835 64.0597 56.1342L 66.8102 59.0385ZM 63.2253 62.5187C 62.9892 62.7536 62.7536 62.9892 62.5187 63.2253L 59.6833 60.4038C 59.9229 60.1631 60.1631 59.9229 60.4038 59.6833L 63.2253 62.5187ZM 43.0228 85.9631C 39.277 91.0514 35.7654 96.3226 32.5036 101.761L 29.0733 99.7031C 32.4 94.1568 35.9815 88.781 39.8015 83.5917L 43.0228 85.9631ZM 27.1112 111.336C 25.8691 113.69 24.6723 116.072 23.5221 118.48L 19.9126 116.756C 21.0859 114.299 22.3065 111.87 23.5734 109.469L 27.1112 111.336ZM 21.4267 123.011C 21.0186 123.924 20.617 124.84 20.2222 125.759L 16.5467 124.181C 16.9495 123.243 17.3591 122.309 17.7753 121.378L 21.4267 123.011ZM 19.4428 127.6C 19.3147 127.906 19.1873 128.214 19.0607 128.521L 15.362 126.998C 15.4911 126.685 15.6211 126.371 15.7518 126.058L 19.4428 127.6ZM 9.76945 156.989C 8.27341 163.093 7.05619 169.307 6.13209 175.617L 2.17431 175.037C 3.11684 168.602 4.35839 162.264 5.88442 156.037L 9.76945 156.989ZM 4.83735 186.528C 4.59629 189.174 4.4065 191.835 4.26899 194.51L 0.274269 194.304C 0.414482 191.577 0.608013 188.863 0.853847 186.165L 4.83735 186.528ZM 4.07407 199.489C 4.04719 200.488 4.0276 201.488 4.01534 202.491L 0.0156394 202.442C 0.028139 201.42 0.0481168 200.4 0.075521 199.381L 4.07407 199.489ZM 4.00061 204.498C 4.00021 204.665 4 204.832 4 205L 0 205C 0 204.829 0.000208974 204.658 0.000626564 204.488L 4.00061 204.498Z"/>
<path id="path1_fill" d="M 32 16C 32 24.8366 24.8366 32 16 32C 7.16344 32 0 24.8366 0 16C 0 7.16344 7.16344 0 16 0C 24.8366 0 32 7.16344 32 16Z"/>
</defs>
</svg>
