<svg width="38" height="38" viewBox="0 0 38 38" version="1.1" xmlns="http://www.w3.org/2000/svg" xmlns:xlink="http://www.w3.org/1999/xlink">
<title>Group 4</title>
<desc>Created using Figma</desc>
<g id="Canvas" transform="translate(-16594 -5816)">
<g id="Group 4">
<g id="by :S and :L">
<use xlink:href="#path0_fill" transform="translate(16602.8 5829.42)" fill="#FFFFFF"/>
</g>
<g id="Group 3">
<g id="Ellipse 3.2">
<mask id="mask0_outline_ins">
<use xlink:href="#path1_fill" fill="white" transform="translate(16594 5816)"/>
</mask>
<g mask="url(#mask0_outline_ins)">
<use xlink:href="#path2_stroke_2x" transform="translate(16594 5816)" fill="#FFFFFF"/>
</g>
</g>
<g id="From sketches to cod">
<use xlink:href="#path3_fill" transform="translate(16612.1 5826.36)" fill="#FFFFFF"/>
</g>
</g>
</g>
</g>
<defs>
<path id="path0_fill" d="M 0 10.8496C 0 10.5703 0.0465495 10.3125 0.139648 10.0762C 0.232747 9.83268 0.368815 9.625 0.547852 9.45312C 0.726888 9.27409 0.945312 9.13444 1.20312 9.03418C 1.46094 8.92676 1.75098 8.87305 2.07324 8.87305C 2.39551 8.87305 2.68555 8.92676 2.94336 9.03418C 3.20117 9.13444 3.41602 9.27409 3.58789 9.45312C 3.76693 9.625 3.90299 9.83268 3.99609 10.0762C 4.09635 10.3125 4.14648 10.5703 4.14648 10.8496C 4.14648 11.1217 4.09635 11.376 3.99609 11.6123C 3.90299 11.8486 3.76693 12.0563 3.58789 12.2354C 3.41602 12.4072 3.20117 12.5433 2.94336 12.6436C 2.68555 12.7438 2.39551 12.7939 2.07324 12.7939C 1.75098 12.7939 1.46094 12.7438 1.20312 12.6436C 0.945312 12.5433 0.726888 12.4072 0.547852 12.2354C 0.368815 12.0563 0.232747 11.8486 0.139648 11.6123C 0.0465495 11.376 0 11.1217 0 10.8496ZM 0 1.97656C 0 1.69727 0.0465495 1.43945 0.139648 1.20312C 0.232747 0.959635 0.368815 0.751953 0.547852 0.580078C 0.726888 0.401042 0.945312 0.261393 1.20312 0.161133C 1.46094 0.0537109 1.75098 0 2.07324 0C 2.39551 0 2.68555 0.0537109 2.94336 0.161133C 3.20117 0.261393 3.41602 0.401042 3.58789 0.580078C 3.76693 0.751953 3.90299 0.959635 3.99609 1.20312C 4.09635 1.43945 4.14648 1.69727 4.14648 1.97656C 4.14648 2.2487 4.09635 2.50293 3.99609 2.73926C 3.90299 2.97559 3.76693 3.18327 3.58789 3.3623C 3.41602 3.53418 3.20117 3.67025 2.94336 3.77051C 2.68555 3.87077 2.39551 3.9209 2.07324 3.9209C 1.75098 3.9209 1.46094 3.87077 1.20312 3.77051C 0.945312 3.67025 0.726888 3.53418 0.547852 3.3623C 0.368815 3.18327 0.232747 2.97559 0.139648 2.73926C 0.0465495 2.50293 0 2.2487 0 1.97656Z"/>
<path id="path1_fill" d="M 38 19C 38 29.4934 29.4934 38 19 38C 8.50659 38 0 29.4934 0 19C 0 8.50659 8.50659 0 19 0C 29.4934 0 38 8.50659 38 19Z"/>
<path id="path2_stroke_2x" d="M 37 19C 37 28.9411 28.9411 37 19 37L 19 39C 30.0457 39 39 30.0457 39 19L 37 19ZM 19 37C 9.05887 37 1 28.9411 1 19L -1 19C -1 30.0457 7.95431 39 19 39L 19 37ZM 1 19C 1 9.05887 9.05887 1 19 1L 19 -1C 7.95431 -1 -1 7.95431 -1 19L 1 19ZM 19 1C 28.9411 1 37 9.05887 37 19L 39 19C 39 7.95431 30.0457 -1 19 -1L 19 1Z"/>
<path id="path3_fill" d="M 7.59473 0L 10.6133 0L 10.624 10.8389C 10.6169 11.5837 10.4736 12.264 10.1943 12.8799C 9.9222 13.4886 9.54622 14.015 9.06641 14.459C 8.58659 14.903 8.02083 15.2467 7.36914 15.4902C 6.72461 15.7337 6.02995 15.8555 5.28516 15.8555C 4.4974 15.8555 3.78125 15.7552 3.13672 15.5547C 2.49219 15.3542 1.93717 15.057 1.47168 14.6631C 1.01335 14.262 0.655273 13.7607 0.397461 13.1592C 0.139648 12.5576 0.00716146 11.8522 0 11.043L 3.0293 11.043C 3.03646 11.8809 3.22266 12.4896 3.58789 12.8691C 3.95312 13.2415 4.51888 13.4277 5.28516 13.4277C 5.62891 13.4277 5.94401 13.3633 6.23047 13.2344C 6.51693 13.0983 6.76042 12.9157 6.96094 12.6865C 7.16146 12.4574 7.31543 12.1852 7.42285 11.8701C 7.53743 11.5479 7.59473 11.2041 7.59473 10.8389L 7.59473 0Z"/>
</defs>
</svg>
