<svg width="38" height="38" viewBox="0 0 38 38" version="1.1" xmlns="http://www.w3.org/2000/svg" xmlns:xlink="http://www.w3.org/1999/xlink">
<title>Group 4</title>
<desc>Created using Figma</desc>
<g id="Canvas" transform="translate(-16546 -6836)">
<g id="Group 4">
<g id="by :S and :L">
<use xlink:href="#path0_fill" transform="translate(16554.8 6846.36)" fill="#FFFFFF"/>
<use xlink:href="#path1_fill" transform="translate(16554.8 6846.36)" fill="#FFFFFF"/>
</g>
<g id="Ellipse 3.1">
<mask id="mask0_outline_ins">
<use xlink:href="#path2_fill" fill="white" transform="translate(16546 6836)"/>
</mask>
<g mask="url(#mask0_outline_ins)">
<use xlink:href="#path3_stroke_2x" transform="translate(16546 6836)" fill="#FFFFFF"/>
</g>
</g>
</g>
</g>
<defs>
<path id="path0_fill" d="M 0 13.9111C 0 13.6318 0.0465495 13.374 0.139648 13.1377C 0.232747 12.8942 0.368815 12.6865 0.547852 12.5146C 0.726888 12.3356 0.945312 12.196 1.20312 12.0957C 1.46094 11.9883 1.75098 11.9346 2.07324 11.9346C 2.39551 11.9346 2.68555 11.9883 2.94336 12.0957C 3.20117 12.196 3.41602 12.3356 3.58789 12.5146C 3.76693 12.6865 3.90299 12.8942 3.99609 13.1377C 4.09635 13.374 4.14648 13.6318 4.14648 13.9111C 4.14648 14.1833 4.09635 14.4375 3.99609 14.6738C 3.90299 14.9102 3.76693 15.1178 3.58789 15.2969C 3.41602 15.4688 3.20117 15.6048 2.94336 15.7051C 2.68555 15.8053 2.39551 15.8555 2.07324 15.8555C 1.75098 15.8555 1.46094 15.8053 1.20312 15.7051C 0.945312 15.6048 0.726888 15.4688 0.547852 15.2969C 0.368815 15.1178 0.232747 14.9102 0.139648 14.6738C 0.0465495 14.4375 0 14.1833 0 13.9111ZM 0 5.03809C 0 4.75879 0.0465495 4.50098 0.139648 4.26465C 0.232747 4.02116 0.368815 3.81348 0.547852 3.6416C 0.726888 3.46257 0.945312 3.32292 1.20312 3.22266C 1.46094 3.11523 1.75098 3.06152 2.07324 3.06152C 2.39551 3.06152 2.68555 3.11523 2.94336 3.22266C 3.20117 3.32292 3.41602 3.46257 3.58789 3.6416C 3.76693 3.81348 3.90299 4.02116 3.99609 4.26465C 4.09635 4.50098 4.14648 4.75879 4.14648 5.03809C 4.14648 5.31022 4.09635 5.56445 3.99609 5.80078C 3.90299 6.03711 3.76693 6.24479 3.58789 6.42383C 3.41602 6.5957 3.20117 6.73177 2.94336 6.83203C 2.68555 6.93229 2.39551 6.98242 2.07324 6.98242C 1.75098 6.98242 1.46094 6.93229 1.20312 6.83203C 0.945312 6.73177 0.726888 6.5957 0.547852 6.42383C 0.368815 6.24479 0.232747 6.03711 0.139648 5.80078C 0.0465495 5.56445 0 5.31022 0 5.03809Z"/>
<path id="path1_fill" d="M 13.1699 13.2021L 20.4961 13.2021L 20.4961 15.6406L 10.1406 15.6406L 10.1406 0L 13.1699 0L 13.1699 13.2021Z"/>
<path id="path2_fill" d="M 38 19C 38 29.4934 29.4934 38 19 38C 8.50659 38 0 29.4934 0 19C 0 8.50659 8.50659 0 19 0C 29.4934 0 38 8.50659 38 19Z"/>
<path id="path3_stroke_2x" d="M 37 19C 37 28.9411 28.9411 37 19 37L 19 39C 30.0457 39 39 30.0457 39 19L 37 19ZM 19 37C 9.05887 37 1 28.9411 1 19L -1 19C -1 30.0457 7.95431 39 19 39L 19 37ZM 1 19C 1 9.05887 9.05887 1 19 1L 19 -1C 7.95431 -1 -1 7.95431 -1 19L 1 19ZM 19 1C 28.9411 1 37 9.05887 37 19L 39 19C 39 7.95431 30.0457 -1 19 -1L 19 1Z"/>
</defs>
</svg>
