<svg id="Layer_1" data-name="Layer 1" xmlns="http://www.w3.org/2000/svg" viewBox="0 0 49 64">
	<title>pointer</title>
	<g id="Page-1">
		<rect id="Rectangle" x="15" y="61" width="28" height="3"/>
		<rect id="Rectangle-2" x="40" y="55" width="3" height="6"/>
		<rect id="Rectangle-Copy" x="43" y="46" width="3" height="9"/>
		<rect id="Rectangle-Copy-2" x="46" y="27" width="3" height="19"/>
		<rect id="Rectangle-Copy-3" x="43" y="24" width="3" height="3"/>
		<rect id="Rectangle-Copy-3-2" x="9" y="30" width="3" height="3"/>
		<rect id="Rectangle-Copy-12" x="3" y="35" width="3" height="3"/>
		<rect id="Rectangle-Copy-13" x="6" y="38" width="3" height="6"/>
		<rect id="Rectangle-Copy-14" x="9" y="44" width="3" height="5"/>
		<rect id="Rectangle-Copy-15" x="12" y="49" width="3" height="6"/>
		<rect id="Rectangle-Copy-16" x="15" y="55" width="3" height="6"/>
		<rect id="Rectangle-Copy-10" y="27" width="9" height="3"/>
		<rect id="Rectangle-Copy-11" y="30" width="3" height="5"/>
		<rect id="Rectangle-Copy-5" x="37" y="24" width="3" height="9"/>
		<rect id="Rectangle-Copy-4" x="37" y="21" width="6" height="3"/>
		<rect id="Rectangle-Copy-5-2"  x="28" y="21" width="3" height="9"/>
		<rect id="Rectangle-Copy-6" x="20" y="3" width="3" height="27"/>
		<rect id="Rectangle-Copy-9" x="12" y="3" width="3" height="32"/>
		<rect id="Rectangle-Copy-4-2" x="28" y="18" width="9" height="3"/>
		<rect id="Rectangle-Copy-7" x="20" y="15" width="8" height="3"/>
		<rect id="Rectangle-Copy-8" x="15" width="5" height="3"/>
		<polygon
			id="Path-2"
			points="18 61 40 61 40 55 43 55 43 46 46 46 46 27 43 27 43 24 40 24 40 33 37 33 37 21 31 21 31 30 28 30 28 18 23 18 23 30 20 30 20 3 15 3 15 35 12 35 12 33 9 33 9 30 3 30 3 35 6 35 6 38 9 38 9 44 12 44 12 49 15 49 15 55 18 55 18 61"
			style="fill:#fff"/>
	</g>
</svg>
