<svg width="38" height="38" viewBox="0 0 38 38" version="1.1" xmlns="http://www.w3.org/2000/svg" xmlns:xlink="http://www.w3.org/1999/xlink">
<title>Group 3</title>
<desc>Created using Figma</desc>
<g id="Canvas" transform="translate(-16454 -6836)">
<g id="Group 3">
<g id="by :S and :L">
<use xlink:href="#path0_fill" transform="translate(16462.3 6846.14)" fill="#FFFFFF"/>
<use xlink:href="#path1_fill" transform="translate(16462.3 6846.14)" fill="#FFFFFF"/>
</g>
<g id="Ellipse 3">
<mask id="mask0_outline_ins">
<use xlink:href="#path2_fill" fill="white" transform="translate(16454 6836)"/>
</mask>
<g mask="url(#mask0_outline_ins)">
<use xlink:href="#path3_stroke_2x" transform="translate(16454 6836)" fill="#FFFFFF"/>
</g>
</g>
</g>
</g>
<defs>
<path id="path0_fill" d="M 0 14.126C 0 13.8467 0.0465495 13.5889 0.139648 13.3525C 0.232747 13.109 0.368815 12.9014 0.547852 12.7295C 0.726888 12.5505 0.945312 12.4108 1.20312 12.3105C 1.46094 12.2031 1.75098 12.1494 2.07324 12.1494C 2.39551 12.1494 2.68555 12.2031 2.94336 12.3105C 3.20117 12.4108 3.41602 12.5505 3.58789 12.7295C 3.76693 12.9014 3.90299 13.109 3.99609 13.3525C 4.09635 13.5889 4.14648 13.8467 4.14648 14.126C 4.14648 14.3981 4.09635 14.6523 3.99609 14.8887C 3.90299 15.125 3.76693 15.3327 3.58789 15.5117C 3.41602 15.6836 3.20117 15.8197 2.94336 15.9199C 2.68555 16.0202 2.39551 16.0703 2.07324 16.0703C 1.75098 16.0703 1.46094 16.0202 1.20312 15.9199C 0.945312 15.8197 0.726888 15.6836 0.547852 15.5117C 0.368815 15.3327 0.232747 15.125 0.139648 14.8887C 0.0465495 14.6523 0 14.3981 0 14.126ZM 0 5.25293C 0 4.97363 0.0465495 4.71582 0.139648 4.47949C 0.232747 4.236 0.368815 4.02832 0.547852 3.85645C 0.726888 3.67741 0.945312 3.53776 1.20312 3.4375C 1.46094 3.33008 1.75098 3.27637 2.07324 3.27637C 2.39551 3.27637 2.68555 3.33008 2.94336 3.4375C 3.20117 3.53776 3.41602 3.67741 3.58789 3.85645C 3.76693 4.02832 3.90299 4.236 3.99609 4.47949C 4.09635 4.71582 4.14648 4.97363 4.14648 5.25293C 4.14648 5.52507 4.09635 5.7793 3.99609 6.01562C 3.90299 6.25195 3.76693 6.45964 3.58789 6.63867C 3.41602 6.81055 3.20117 6.94661 2.94336 7.04688C 2.68555 7.14714 2.39551 7.19727 2.07324 7.19727C 1.75098 7.19727 1.46094 7.14714 1.20312 7.04688C 0.945312 6.94661 0.726888 6.81055 0.547852 6.63867C 0.368815 6.45964 0.232747 6.25195 0.139648 6.01562C 0.0465495 5.7793 0 5.52507 0 5.25293Z"/>
<path id="path1_fill" d="M 18.0576 11.7734C 18.0576 11.4941 18.0075 11.2327 17.9072 10.9893C 17.8141 10.7458 17.6494 10.5202 17.4131 10.3125C 17.1839 10.0977 16.8796 9.9043 16.5 9.73242C 16.1276 9.55339 15.6621 9.38867 15.1035 9.23828C 14.4232 9.05208 13.7715 8.81934 13.1484 8.54004C 12.5326 8.26074 11.9883 7.92415 11.5156 7.53027C 11.043 7.13639 10.6634 6.67806 10.377 6.15527C 10.0977 5.63249 9.95801 5.03092 9.95801 4.35059C 9.95801 3.69173 10.0977 3.09375 10.377 2.55664C 10.6562 2.01953 11.043 1.5612 11.5371 1.18164C 12.0312 0.802083 12.6149 0.512044 13.2881 0.311523C 13.9613 0.103841 14.6917 0 15.4795 0C 16.2959 0 17.0407 0.118164 17.7139 0.354492C 18.3942 0.59082 18.9779 0.923828 19.4648 1.35352C 19.9518 1.77604 20.3314 2.28092 20.6035 2.86816C 20.8757 3.4554 21.0117 4.09993 21.0117 4.80176L 18.0684 4.80176C 18.054 4.45085 17.9896 4.12858 17.875 3.83496C 17.7676 3.54134 17.6029 3.29069 17.3809 3.08301C 17.166 2.86816 16.8939 2.70345 16.5645 2.58887C 16.2422 2.46712 15.8626 2.40625 15.4258 2.40625C 15.0247 2.40625 14.6667 2.45638 14.3516 2.55664C 14.0436 2.64974 13.7822 2.78581 13.5674 2.96484C 13.3525 3.13672 13.1878 3.3444 13.0732 3.58789C 12.9658 3.82422 12.9121 4.08203 12.9121 4.36133C 12.9121 4.65495 12.9837 4.91992 13.127 5.15625C 13.2773 5.39258 13.4922 5.60742 13.7715 5.80078C 14.0508 5.98698 14.3874 6.15885 14.7812 6.31641C 15.1823 6.47396 15.6335 6.62077 16.1348 6.75684C 16.8509 6.96452 17.5098 7.21875 18.1113 7.51953C 18.7129 7.82031 19.2285 8.17839 19.6582 8.59375C 20.0951 9.00195 20.4316 9.47103 20.668 10.001C 20.9115 10.5238 21.0332 11.1074 21.0332 11.752C 21.0332 12.4395 20.8936 13.0518 20.6143 13.5889C 20.3421 14.1188 19.9626 14.57 19.4756 14.9424C 18.9886 15.3076 18.4085 15.5869 17.7354 15.7803C 17.0622 15.9665 16.3281 16.0596 15.5332 16.0596C 15.0391 16.0596 14.5449 16.013 14.0508 15.9199C 13.5638 15.834 13.0947 15.6979 12.6436 15.5117C 12.1995 15.3255 11.7842 15.0928 11.3975 14.8135C 11.0107 14.5342 10.6742 14.2083 10.3877 13.8359C 10.1084 13.4635 9.88639 13.041 9.72168 12.5684C 9.56413 12.0957 9.48535 11.5729 9.48535 11L 12.4502 11C 12.4645 11.4727 12.5469 11.8773 12.6973 12.2139C 12.8477 12.5505 13.0553 12.8262 13.3203 13.041C 13.5924 13.2559 13.9147 13.4134 14.2871 13.5137C 14.6667 13.6139 15.082 13.6641 15.5332 13.6641C 15.9342 13.6641 16.2887 13.6175 16.5967 13.5244C 16.9118 13.4313 17.1768 13.3024 17.3916 13.1377C 17.6064 12.973 17.7712 12.776 17.8857 12.5469C 18.0003 12.3105 18.0576 12.0527 18.0576 11.7734Z"/>
<path id="path2_fill" d="M 38 19C 38 29.4934 29.4934 38 19 38C 8.50659 38 0 29.4934 0 19C 0 8.50659 8.50659 0 19 0C 29.4934 0 38 8.50659 38 19Z"/>
<path id="path3_stroke_2x" d="M 37 19C 37 28.9411 28.9411 37 19 37L 19 39C 30.0457 39 39 30.0457 39 19L 37 19ZM 19 37C 9.05887 37 1 28.9411 1 19L -1 19C -1 30.0457 7.95431 39 19 39L 19 37ZM 1 19C 1 9.05887 9.05887 1 19 1L 19 -1C 7.95431 -1 -1 7.95431 -1 19L 1 19ZM 19 1C 28.9411 1 37 9.05887 37 19L 39 19C 39 7.95431 30.0457 -1 19 -1L 19 1Z"/>
</defs>
</svg>
